<svg xmlns="http://www.w3.org/2000/svg" xmlns:xlink="http://www.w3.org/1999/xlink" width="500" zoomAndPan="magnify" viewBox="0 0 375 374.999991" height="500" preserveAspectRatio="xMidYMid meet" version="1.0"><defs><clipPath id="474c79ebf9"><path d="M 18 8 L 365 8 L 365 355 L 18 355 Z M 18 8 " clip-rule="nonzero"/></clipPath><clipPath id="024e52e257"><path d="M 27.457031 229.230469 C 27.304688 220.761719 28.765625 212.417969 31.566406 204.339844 C 32.183594 202.574219 31.941406 201.285156 31.027344 199.726562 C 21.351562 183.328125 16.878906 165.589844 19.054688 146.648438 C 22.273438 118.625 36.613281 97.867188 61.609375 84.667969 C 63.636719 83.59375 64.578125 82.3125 65.175781 80.1875 C 72.332031 54.523438 87.234375 35.101562 111.71875 23.882812 C 129.980469 15.519531 148.875 14.851562 167.960938 21.042969 C 170.140625 21.75 171.726562 21.5 173.652344 20.386719 C 189.164062 11.328125 205.941406 6.890625 223.855469 8.488281 C 253.019531 11.085938 274.59375 25.550781 288.289062 51.527344 C 289.25 53.355469 290.382812 54.210938 292.34375 54.753906 C 317.117188 61.585938 336.242188 75.71875 347.789062 99.015625 C 357.101562 117.808594 358.226562 137.417969 351.832031 157.390625 C 351.070312 159.765625 351.328125 161.507812 352.550781 163.636719 C 361.28125 178.722656 365.71875 195.023438 364.382812 212.441406 C 362.109375 241.996094 347.769531 263.953125 321.519531 277.925781 C 319.65625 278.917969 318.613281 279.988281 318.039062 282.121094 C 312.085938 304.136719 300.0625 321.917969 280.453125 333.917969 C 259.957031 346.460938 238.03125 348.75 215.164062 341.523438 C 212.976562 340.828125 211.398438 341.085938 209.492188 342.199219 C 193.789062 351.347656 176.8125 355.757812 158.691406 354.035156 C 129.910156 351.285156 108.5625 336.9375 94.988281 311.304688 C 93.9375 309.316406 92.691406 308.351562 90.507812 307.742188 C 64.667969 300.492188 45.253906 285.390625 33.964844 260.65625 C 29.441406 250.742188 27.324219 240.257812 27.457031 229.230469 Z M 166.644531 295.8125 C 166.761719 296.332031 166.769531 296.53125 166.851562 296.699219 C 176.488281 315.195312 190.589844 328.925781 209.804688 337.296875 C 211.644531 338.101562 212.878906 337.617188 214.332031 336.589844 C 232.710938 323.613281 245.09375 306.367188 251.398438 284.753906 C 251.691406 283.757812 251.863281 282.726562 252.125 281.5625 C 236.917969 276 224.023438 267.285156 213.4375 255.828125 C 208.496094 256.742188 204.003906 257.574219 199.34375 258.441406 C 192.148438 273.984375 181.105469 286.355469 166.644531 295.8125 Z M 154.296875 249.339844 C 150.945312 247.125 147.761719 245.214844 144.804688 243 C 143.132812 241.746094 141.738281 241.550781 139.761719 242.222656 C 128.921875 245.914062 117.753906 247.394531 106.328125 246.433594 C 101.875 246.058594 97.445312 245.414062 92.820312 244.867188 C 92.675781 245.179688 92.421875 245.589844 92.28125 246.039062 C 86.28125 265.757812 86.5625 285.257812 94.214844 304.539062 C 94.828125 306.089844 95.707031 306.933594 97.328125 307.113281 C 101.59375 307.589844 105.835938 308.3125 110.113281 308.539062 C 128.304688 309.503906 145.347656 305.410156 161.226562 296.476562 C 161.964844 296.0625 162.652344 295.550781 163.488281 294.996094 C 156.71875 280.441406 153.769531 265.253906 154.296875 249.339844 Z M 305.351562 209.414062 C 302.808594 210.453125 300.582031 211.429688 298.304688 212.292969 C 287.152344 216.53125 275.59375 218.628906 263.671875 218.574219 C 261.652344 218.570312 260.550781 219.238281 259.492188 220.9375 C 257.644531 223.914062 255.523438 226.734375 253.351562 229.488281 C 252.339844 230.769531 252.058594 231.789062 252.597656 233.421875 C 257.476562 248.101562 258.128906 263.058594 255.207031 278.21875 C 255.082031 278.847656 255.191406 279.519531 255.191406 280.203125 C 256.015625 280.472656 256.75 280.738281 257.492188 280.964844 C 268.648438 284.339844 280.050781 285.472656 291.644531 284.375 C 299.652344 283.613281 307.390625 281.671875 314.859375 278.648438 C 316.265625 278.078125 317.222656 277.378906 317.277344 275.753906 C 317.296875 275.175781 317.519531 274.609375 317.617188 274.035156 C 320.316406 258.019531 319.007812 242.332031 313.691406 226.988281 C 311.582031 220.886719 308.878906 215.066406 305.351562 209.414062 Z M 115.933594 204.234375 C 114.832031 199.234375 113.789062 194.777344 112.910156 190.28125 C 112.625 188.820312 112.113281 187.886719 110.722656 187.164062 C 97.410156 180.324219 86.738281 170.503906 78.3125 158.1875 C 77.882812 157.5625 77.386719 156.996094 76.886719 156.363281 C 76.390625 156.539062 76 156.613281 75.667969 156.792969 C 57.476562 166.503906 43.855469 180.476562 35.609375 199.53125 C 34.882812 201.214844 35.132812 202.394531 36.121094 203.796875 C 49.363281 222.660156 67.035156 235.25 89.242188 241.433594 C 89.871094 241.605469 90.550781 241.605469 91.382812 241.710938 C 96.710938 227.175781 104.949219 214.640625 115.933594 204.234375 Z M 306.152344 206.242188 C 306.691406 206.0625 306.992188 206.007812 307.246094 205.875 C 325.582031 196.195312 339.234375 182.125 347.554688 163.003906 C 348.292969 161.308594 347.960938 160.132812 346.988281 158.738281 C 333.730469 139.898438 316.078125 127.296875 293.859375 121.132812 C 293.238281 120.960938 292.558594 120.960938 291.796875 120.871094 C 291.355469 121.976562 290.964844 122.96875 290.566406 123.949219 C 290.15625 124.941406 289.746094 125.9375 289.3125 126.914062 C 284.675781 137.363281 278.484375 146.773438 270.496094 154.980469 C 269.679688 155.816406 269.015625 156.515625 269.300781 157.992188 C 270.226562 162.875 270.976562 167.789062 271.632812 172.714844 C 271.859375 174.417969 272.492188 175.421875 274.054688 176.265625 C 286.382812 182.949219 296.40625 192.214844 304.359375 203.742188 C 304.914062 204.546875 305.496094 205.320312 306.152344 206.242188 Z M 77.667969 153.019531 C 78.152344 152.949219 78.367188 152.972656 78.535156 152.894531 C 90.933594 147.195312 103.972656 144.261719 117.601562 143.984375 C 119.035156 143.957031 119.574219 143.222656 120.210938 142.132812 C 122.789062 137.773438 125.371094 133.410156 128.160156 129.1875 C 129.203125 127.605469 129.648438 126.347656 129.121094 124.402344 C 125.972656 112.761719 125.308594 100.945312 127.148438 89.015625 C 127.488281 86.835938 127.8125 84.652344 128.132812 82.589844 C 127.679688 82.339844 127.527344 82.214844 127.347656 82.160156 C 107.476562 75.933594 87.804688 76.21875 68.332031 83.890625 C 66.621094 84.5625 66.011719 85.664062 65.714844 87.328125 C 63.285156 100.675781 63.671875 113.929688 66.914062 127.101562 C 69.160156 136.242188 72.683594 144.875 77.667969 153.019531 Z M 290.253906 117.675781 C 290.324219 117.609375 290.414062 117.546875 290.453125 117.460938 C 290.605469 117.109375 290.765625 116.75 290.875 116.382812 C 296.792969 96.964844 296.503906 77.757812 289.222656 58.691406 C 288.351562 56.402344 286.984375 55.613281 284.796875 55.246094 C 275.695312 53.726562 266.574219 53.429688 257.394531 54.488281 C 244.726562 55.957031 232.863281 59.847656 221.792969 66.164062 C 221.066406 66.582031 220.402344 67.105469 219.648438 67.617188 C 225.214844 79.570312 228.21875 91.917969 228.738281 104.839844 C 228.800781 106.335938 229.707031 106.820312 230.730469 107.402344 C 235.9375 110.335938 240.808594 113.742188 245.167969 117.835938 C 246.320312 118.910156 247.308594 119.082031 248.816406 118.6875 C 257.851562 116.304688 267.042969 115.363281 276.367188 116.113281 C 280.929688 116.464844 285.464844 117.121094 290.253906 117.675781 Z M 216.519531 66.636719 C 216.242188 65.964844 216.0625 65.410156 215.792969 64.90625 C 206.238281 47.113281 192.507812 33.792969 173.960938 25.53125 C 171.933594 24.628906 170.464844 24.734375 168.632812 26.042969 C 150.242188 39.164062 137.816406 56.492188 131.621094 78.25 C 131.382812 79.070312 131.261719 79.925781 131.074219 80.796875 C 131.523438 81.074219 131.828125 81.328125 132.171875 81.460938 C 143.921875 85.859375 154.414062 92.296875 163.648438 100.78125 C 164.707031 101.75 165.628906 101.667969 166.824219 101.257812 C 172.667969 99.269531 178.691406 98.039062 184.828125 97.53125 C 186.566406 97.386719 187.597656 96.855469 188.511719 95.339844 C 195.054688 84.472656 203.691406 75.5625 214.117188 68.359375 C 214.921875 67.8125 215.6875 67.238281 216.519531 66.636719 Z M 63.625 86.28125 C 20.625 106.832031 9.007812 160.429688 33.449219 199.042969 C 37.652344 189.171875 43.335938 180.484375 50.605469 172.859375 C 57.863281 165.242188 66.261719 159.121094 75.746094 154.238281 C 63.339844 133.054688 59.511719 110.542969 63.625 86.28125 Z M 92.226562 305.578125 C 84.222656 285.136719 84.070312 264.769531 90.515625 244.070312 C 82.667969 242.050781 75.398438 239.292969 68.511719 235.597656 C 61.609375 231.890625 55.269531 227.390625 49.378906 222.195312 C 43.523438 217.039062 38.675781 210.984375 33.875 204.601562 C 18.035156 249.722656 48.050781 295.972656 92.226562 305.578125 Z M 319.414062 276.582031 C 333.621094 269.429688 344.425781 259.570312 352.027344 246.355469 C 361.613281 229.6875 364.339844 211.769531 361.039062 192.917969 C 359.21875 182.511719 355.589844 172.753906 349.789062 163.351562 C 340.945312 183.75 326.621094 198.273438 307.453125 208.347656 C 319.671875 229.558594 323.785156 252.019531 319.414062 276.582031 Z M 218.652344 65.421875 C 228.992188 59.238281 239.902344 55.203125 251.515625 53.117188 C 263.117188 51.042969 274.734375 51.234375 286.527344 53.3125 C 264.816406 7.574219 208.101562 0.0195312 174.113281 23.203125 C 194.023438 31.875 208.550781 46.171875 218.652344 65.421875 Z M 96.746094 309.300781 C 116.585938 352.648438 172.121094 363.785156 209.132812 339.410156 C 189.113281 330.734375 174.558594 316.359375 164.484375 297.15625 C 154.117188 303.304688 143.304688 307.34375 131.773438 309.417969 C 120.164062 311.519531 108.535156 311.308594 96.746094 309.300781 Z M 67.042969 82.007812 C 87.628906 73.890625 108.078125 73.753906 128.769531 80.167969 C 135.117188 56.414062 148.191406 37.71875 168.128906 23.695312 C 129.542969 8.960938 79.863281 31.175781 67.042969 82.007812 Z M 349.3125 158.261719 C 353.722656 145.035156 354.78125 132.183594 352.242188 119.097656 C 348.746094 101.078125 339.746094 86.230469 325.8125 74.378906 C 315.71875 65.796875 304.195312 60.015625 290.722656 56.601562 C 294.855469 66.988281 296.941406 77.125 297.195312 87.644531 C 297.445312 98.136719 295.742188 108.34375 292.613281 118.5 C 304.304688 121.5 314.800781 126.285156 324.421875 132.980469 C 334.125 139.738281 342.273438 148.035156 349.3125 158.261719 Z M 254.371094 282.394531 C 252.257812 290.148438 249.578125 297.445312 245.882812 304.328125 C 242.171875 311.242188 237.679688 317.597656 232.488281 323.492188 C 227.339844 329.339844 221.324219 334.210938 214.914062 338.988281 C 260.46875 355.101562 306.753906 324.007812 315.742188 280.695312 C 295.515625 288.640625 275.140625 288.8125 254.371094 282.394531 Z M 193.917969 166.738281 C 194.105469 166.75 194.292969 166.765625 194.480469 166.785156 C 194.859375 165.90625 195.253906 165.035156 195.628906 164.148438 C 198.191406 158.097656 201.449219 152.460938 205.4375 147.230469 C 210.269531 140.902344 215.929688 135.429688 222.453125 130.863281 C 223.488281 130.132812 224.375 129.441406 224.679688 127.996094 C 225.953125 121.957031 226.460938 115.847656 226.734375 109.699219 C 226.804688 108.226562 226.238281 107.414062 224.910156 106.785156 C 214.144531 101.6875 202.777344 99.421875 190.921875 99.292969 C 189.210938 99.269531 188.289062 99.929688 187.542969 101.4375 C 184.808594 106.964844 182.628906 112.675781 181.050781 118.652344 C 180.585938 120.417969 180.851562 121.777344 181.742188 123.320312 C 188.984375 135.875 193.128906 149.351562 193.640625 163.890625 C 193.675781 164.847656 193.820312 165.789062 193.917969 166.738281 Z M 164.347656 104.4375 C 152.117188 109.171875 141.863281 116.402344 133.328125 126.109375 C 132.414062 127.15625 132.324219 128.132812 132.871094 129.308594 C 135.117188 134.179688 137.359375 139.046875 139.582031 143.921875 C 140.453125 145.824219 141.863281 146.773438 143.949219 147.335938 C 158.046875 151.128906 170.542969 157.914062 181.246094 167.914062 C 181.851562 168.484375 182.503906 168.996094 183.140625 169.535156 C 183.21875 168.613281 182.953125 167.90625 182.699219 167.203125 C 181.769531 164.632812 180.738281 162.097656 179.949219 159.488281 C 176.371094 147.703125 175.644531 135.714844 177.789062 123.582031 C 177.996094 122.390625 178.101562 121.367188 177.367188 120.261719 C 173.617188 114.625 169.429688 109.382812 164.347656 104.4375 Z M 203.304688 172.871094 C 203.859375 172.976562 203.960938 173.023438 204.039062 173.003906 C 204.496094 172.851562 204.960938 172.691406 205.410156 172.507812 C 219.648438 166.585938 234.351562 164.828125 249.550781 167.601562 C 250.8125 167.832031 251.84375 167.664062 252.832031 166.890625 C 256.972656 163.636719 261.097656 160.367188 265.285156 157.175781 C 266.59375 156.179688 266.378906 155.082031 265.957031 153.808594 C 262.175781 142.316406 256.167969 132.164062 247.863281 123.347656 C 246.574219 121.984375 245.441406 121.867188 243.75 122.46875 C 238.496094 124.339844 233.472656 126.65625 228.632812 129.433594 C 226.984375 130.375 226.097656 131.554688 225.601562 133.410156 C 221.773438 147.605469 214.984375 160.199219 204.929688 170.988281 C 204.398438 171.535156 203.929688 172.140625 203.304688 172.871094 Z M 120.980469 146.136719 C 120.632812 146.636719 120.421875 146.851562 120.308594 147.105469 C 115.144531 159.195312 113.414062 171.820312 114.363281 184.878906 C 114.460938 186.25 115.042969 187.019531 116.300781 187.441406 C 120.730469 188.910156 125.160156 190.386719 129.570312 191.914062 C 130.90625 192.378906 131.972656 192.066406 133.144531 191.382812 C 146.175781 183.738281 160.25 179.617188 175.359375 179.085938 C 175.960938 179.0625 176.566406 178.933594 177.609375 178.785156 C 173.636719 176.839844 170.070312 175.296875 166.699219 173.414062 C 156.496094 167.722656 148.003906 160.078125 141.253906 150.519531 C 140.542969 149.507812 139.933594 148.503906 138.453125 148.195312 C 132.707031 146.996094 126.90625 146.429688 120.980469 146.136719 Z M 205.535156 183.6875 C 206.074219 184.097656 206.261719 184.3125 206.496094 184.410156 C 221.308594 190.308594 233.324219 199.734375 242.484375 212.8125 C 242.980469 213.519531 243.957031 214.164062 244.804688 214.308594 C 249.683594 215.140625 254.589844 215.820312 259.609375 216.558594 C 266.628906 203.859375 269.867188 190.648438 269.695312 176.535156 C 264.765625 173.96875 259.78125 172.347656 254.714844 170.898438 C 252.734375 170.332031 251.09375 170.519531 249.21875 171.605469 C 237.921875 178.128906 225.78125 182.101562 212.726562 183.136719 C 210.449219 183.308594 208.171875 183.488281 205.535156 183.6875 Z M 180.191406 189.296875 C 179.027344 189.660156 178.390625 189.796875 177.804688 190.039062 C 163.488281 195.996094 148.710938 197.789062 133.433594 194.933594 C 132.132812 194.691406 131.15625 195.039062 130.1875 195.765625 C 127.070312 198.105469 123.914062 200.398438 120.847656 202.800781 C 118.648438 204.53125 118.675781 204.617188 119.722656 207.183594 C 124.488281 218.964844 131.621094 229.066406 141.214844 237.410156 C 141.78125 237.910156 142.4375 238.296875 143.257812 238.886719 C 146.835938 237.058594 150.359375 235.1875 153.945312 233.457031 C 156.027344 232.445312 157.105469 230.957031 157.714844 228.679688 C 161.503906 214.578125 168.355469 202.144531 178.335938 191.457031 C 178.847656 190.910156 179.320312 190.316406 180.191406 189.296875 Z M 199.886719 192.878906 C 199.773438 192.949219 199.65625 193.023438 199.546875 193.09375 C 199.664062 193.417969 199.78125 193.742188 199.898438 194.070312 C 201.070312 197.273438 202.410156 200.433594 203.375 203.703125 C 206.765625 215.21875 207.472656 226.925781 205.332031 238.761719 C 205.035156 240.421875 205.285156 241.792969 206.316406 243.128906 C 208.34375 245.753906 210.246094 248.484375 212.289062 251.09375 C 213.980469 253.246094 214.042969 253.21875 216.691406 252.320312 C 228.5625 248.304688 238.835938 241.746094 247.570312 232.769531 C 248.175781 232.15625 248.707031 231.460938 249.523438 230.511719 C 247.558594 226.613281 245.5625 222.722656 243.640625 218.796875 C 242.679688 216.832031 241.238281 215.796875 239.058594 215.210938 C 224.757812 211.347656 212.136719 204.402344 201.359375 194.171875 C 200.890625 193.710938 200.378906 193.300781 199.886719 192.878906 Z M 188.832031 195.425781 C 188.414062 196.359375 188.015625 197.21875 187.648438 198.09375 C 182.0625 211.351562 173.546875 222.347656 161.871094 230.753906 C 159.507812 232.453125 158.234375 234.320312 157.9375 237.121094 C 157.558594 240.679688 157.015625 244.222656 156.546875 247.796875 C 169.796875 254.507812 183.425781 257.230469 198.175781 256.113281 C 199.46875 252.0625 200.714844 248.066406 202.015625 244.09375 C 202.605469 242.292969 202.289062 240.78125 201.316406 239.128906 C 196.695312 231.246094 193.246094 222.847656 191.488281 213.878906 C 190.3125 207.871094 189.722656 201.742188 188.832031 195.425781 Z M 156.554688 250.3125 C 156.054688 265.765625 159.039062 280.03125 165.34375 293.6875 C 176.605469 288.035156 194.699219 267.449219 196.25 258.515625 C 182.460938 259.167969 169.351562 256.390625 156.554688 250.3125 Z M 250.292969 233.386719 C 247.503906 235.902344 245.058594 238.28125 242.421875 240.421875 C 239.847656 242.507812 237.160156 244.488281 234.359375 246.246094 C 231.472656 248.058594 228.445312 249.675781 225.371094 251.140625 C 222.355469 252.589844 219.203125 253.746094 215.832031 255.152344 C 226.371094 266.1875 238.386719 274.171875 252.699219 279.375 C 255.980469 263.667969 255.371094 248.546875 250.292969 233.386719 Z M 93.597656 242.167969 C 105.34375 246.203125 132.5625 244.480469 140.023438 239.300781 C 129.675781 230.304688 122.09375 219.371094 117 206.304688 C 106.320312 216.617188 98.671875 228.402344 93.597656 242.167969 Z M 262.371094 216.117188 C 273.40625 217.226562 293.445312 213.195312 303.75 207.371094 C 299.902344 198.28125 280.375 180.253906 271.972656 178.136719 C 271.667969 191.410156 268.710938 204.035156 262.371094 216.117188 Z M 118.203125 146.386719 C 108.113281 145.417969 84.964844 150.921875 79.363281 155.464844 C 85.511719 166.621094 104.617188 183.777344 112.167969 184.777344 C 111.152344 171.605469 113.109375 158.890625 118.203125 146.386719 Z M 268.378906 154.078125 C 278.007812 144.03125 284.949219 133.035156 289.617188 120.15625 C 275.839844 117.164062 262.453125 117.34375 248.664062 121.035156 C 253.289062 125.964844 257.1875 130.929688 260.433594 136.378906 C 263.679688 141.808594 266.136719 147.605469 268.378906 154.078125 Z M 162.175781 102.914062 C 157.175781 96.382812 137.710938 84.589844 130.527344 83.609375 C 127.085938 95.0625 128.042969 117.226562 131.695312 123.910156 C 136.382812 119.925781 140.984375 115.738281 145.878906 111.914062 C 150.789062 108.085938 156.394531 105.359375 162.175781 102.914062 Z M 190.320312 96.578125 C 196.6875 97.4375 202.8125 97.871094 208.753906 99.175781 C 214.691406 100.484375 220.445312 102.65625 226.25 104.445312 C 227.226562 97.429688 222.292969 76.117188 217.355469 68.859375 C 206.289062 76.109375 197.226562 85.226562 190.320312 96.578125 Z M 180.234375 125.003906 C 175.71875 137.46875 182.152344 168.628906 190.933594 177.109375 C 193.09375 158.484375 189.230469 141.441406 180.234375 125.003906 Z M 160.152344 229.082031 C 173.214844 221.378906 190.078125 195.503906 188.996094 185.019531 C 177.214844 192.359375 161.945312 215.570312 160.152344 229.082031 Z M 248.015625 169.847656 C 233.507812 165.71875 202.371094 172.277344 195.816406 180.691406 C 214.277344 182.804688 231.367188 178.964844 248.015625 169.847656 Z M 187.203125 182.242188 C 168.792969 179.742188 151.714844 183.621094 135.730469 192.789062 C 154.226562 195.871094 171.378906 192.308594 187.203125 182.242188 Z M 239.222656 212.683594 C 228.320312 197.441406 213.714844 187.800781 195.414062 183.746094 C 206.648438 198.480469 221.425781 207.863281 239.222656 212.683594 Z M 223.117188 133.445312 C 210.421875 140.472656 194.929688 163.996094 193.933594 177.527344 C 204.488281 172.25 220.027344 148.894531 223.117188 133.445312 Z M 143.582031 149.453125 C 150.800781 162.464844 177.921875 180.15625 188.070312 178.621094 C 176.496094 164.128906 161.746094 154.714844 143.582031 149.453125 Z M 202.957031 237.125 C 206.800781 221.796875 200.757812 193.078125 192.1875 185.515625 C 190.082031 204.027344 193.847656 221.101562 202.957031 237.125 Z M 178.648438 117.726562 C 180.941406 111.75 183.1875 105.871094 185.550781 99.722656 C 179.179688 100.054688 173.109375 101.433594 167 103.507812 C 170.957031 108.347656 174.765625 112.988281 178.648438 117.726562 Z M 227.378906 127.246094 C 232.917969 124.726562 238.332031 122.261719 244.027344 119.671875 C 239.417969 115.523438 234.632812 112.011719 229.152344 109.042969 C 228.535156 115.34375 227.960938 121.265625 227.378906 127.246094 Z M 130.347656 129.78125 C 127.058594 134.179688 124.1875 138.636719 121.847656 143.777344 C 127.371094 144.390625 132.429688 144.960938 137.621094 145.542969 C 135.179688 140.265625 132.832031 135.183594 130.347656 129.78125 Z M 269.535156 173.628906 C 269.273438 168.394531 268.628906 163.558594 267.203125 158.644531 C 262.972656 162.007812 259 165.179688 254.894531 168.441406 C 259.808594 170.179688 264.441406 171.820312 269.535156 173.628906 Z M 117.804688 202.363281 C 120.039062 200.585938 121.742188 199.296875 123.355469 197.914062 C 124.890625 196.605469 126.90625 195.808594 128.054688 194.007812 C 123.652344 192.496094 119.472656 191.0625 114.757812 189.445312 C 115.804688 193.882812 116.75 197.890625 117.804688 202.363281 Z M 258.648438 218.609375 C 253.941406 218.015625 249.800781 217.496094 245.320312 216.925781 C 247.335938 221 249.183594 224.71875 251.253906 228.898438 C 253.730469 225.445312 256.023438 222.253906 258.648438 218.609375 Z M 155.972656 235.007812 C 152.207031 236.90625 148.8125 238.621094 145.0625 240.519531 C 148.183594 242.886719 151.035156 244.867188 154.441406 246.550781 C 154.976562 242.527344 155.445312 238.953125 155.972656 235.007812 Z M 200.632812 255.796875 C 204.476562 255.523438 207.894531 254.902344 211.492188 253.746094 C 210.136719 251.992188 209.007812 250.554688 207.894531 249.097656 C 206.765625 247.617188 205.652344 246.113281 204.371094 244.398438 C 203.070312 248.378906 201.925781 251.863281 200.632812 255.796875 Z M 200.632812 255.796875 " clip-rule="nonzero"/></clipPath><linearGradient x1="7.188531" gradientTransform="matrix(0.692208, 0, 0, 0.692461, 18.513191, 8.17105)" y1="531.539837" x2="486.760291" gradientUnits="userSpaceOnUse" y2="-24.558921" id="ed8150b7f0"><stop stop-opacity="1" stop-color="rgb(66.299438%, 48.599243%, 31.399536%)" offset="0"/><stop stop-opacity="1" stop-color="rgb(66.299438%, 48.599243%, 31.399536%)" offset="0.25"/><stop stop-opacity="1" stop-color="rgb(66.293335%, 48.594666%, 31.396484%)" offset="0.375"/><stop stop-opacity="1" stop-color="rgb(65.692139%, 48.155212%, 31.111145%)" offset="0.378906"/><stop stop-opacity="1" stop-color="rgb(65.098572%, 47.720337%, 30.830383%)" offset="0.382813"/><stop stop-opacity="1" stop-color="rgb(64.503479%, 47.283936%, 30.548096%)" offset="0.386719"/><stop stop-opacity="1" stop-color="rgb(63.909912%, 46.84906%, 30.267334%)" offset="0.390625"/><stop stop-opacity="1" stop-color="rgb(63.314819%, 46.412659%, 29.985046%)" offset="0.394531"/><stop stop-opacity="1" stop-color="rgb(62.721252%, 45.976257%, 29.704285%)" offset="0.398438"/><stop stop-opacity="1" stop-color="rgb(62.127686%, 45.539856%, 29.423523%)" offset="0.402344"/><stop stop-opacity="1" stop-color="rgb(61.534119%, 45.10498%, 29.142761%)" offset="0.40625"/><stop stop-opacity="1" stop-color="rgb(60.939026%, 44.668579%, 28.860474%)" offset="0.410156"/><stop stop-opacity="1" stop-color="rgb(60.345459%, 44.233704%, 28.579712%)" offset="0.414063"/><stop stop-opacity="1" stop-color="rgb(59.750366%, 43.797302%, 28.297424%)" offset="0.417969"/><stop stop-opacity="1" stop-color="rgb(59.156799%, 43.362427%, 28.016663%)" offset="0.421875"/><stop stop-opacity="1" stop-color="rgb(58.561707%, 42.926025%, 27.734375%)" offset="0.425781"/><stop stop-opacity="1" stop-color="rgb(57.96814%, 42.49115%, 27.453613%)" offset="0.429688"/><stop stop-opacity="1" stop-color="rgb(57.373047%, 42.054749%, 27.171326%)" offset="0.433594"/><stop stop-opacity="1" stop-color="rgb(56.77948%, 41.619873%, 26.890564%)" offset="0.4375"/><stop stop-opacity="1" stop-color="rgb(56.184387%, 41.183472%, 26.608276%)" offset="0.441406"/><stop stop-opacity="1" stop-color="rgb(55.59082%, 40.748596%, 26.327515%)" offset="0.445313"/><stop stop-opacity="1" stop-color="rgb(54.995728%, 40.312195%, 26.045227%)" offset="0.449219"/><stop stop-opacity="1" stop-color="rgb(54.402161%, 39.877319%, 25.764465%)" offset="0.453125"/><stop stop-opacity="1" stop-color="rgb(53.807068%, 39.440918%, 25.482178%)" offset="0.457031"/><stop stop-opacity="1" stop-color="rgb(53.213501%, 39.006042%, 25.201416%)" offset="0.460938"/><stop stop-opacity="1" stop-color="rgb(52.618408%, 38.569641%, 24.919128%)" offset="0.464844"/><stop stop-opacity="1" stop-color="rgb(52.024841%, 38.134766%, 24.638367%)" offset="0.46875"/><stop stop-opacity="1" stop-color="rgb(51.429749%, 37.698364%, 24.356079%)" offset="0.472656"/><stop stop-opacity="1" stop-color="rgb(50.836182%, 37.263489%, 24.075317%)" offset="0.476563"/><stop stop-opacity="1" stop-color="rgb(50.241089%, 36.827087%, 23.79303%)" offset="0.480469"/><stop stop-opacity="1" stop-color="rgb(49.647522%, 36.392212%, 23.512268%)" offset="0.484375"/><stop stop-opacity="1" stop-color="rgb(49.052429%, 35.955811%, 23.22998%)" offset="0.488281"/><stop stop-opacity="1" stop-color="rgb(48.458862%, 35.520935%, 22.949219%)" offset="0.492188"/><stop stop-opacity="1" stop-color="rgb(47.86377%, 35.084534%, 22.666931%)" offset="0.496094"/><stop stop-opacity="1" stop-color="rgb(47.270203%, 34.649658%, 22.386169%)" offset="0.5"/><stop stop-opacity="1" stop-color="rgb(46.67511%, 34.213257%, 22.105408%)" offset="0.503906"/><stop stop-opacity="1" stop-color="rgb(46.081543%, 33.778381%, 21.824646%)" offset="0.507813"/><stop stop-opacity="1" stop-color="rgb(45.48645%, 33.34198%, 21.542358%)" offset="0.511719"/><stop stop-opacity="1" stop-color="rgb(44.892883%, 32.907104%, 21.261597%)" offset="0.515625"/><stop stop-opacity="1" stop-color="rgb(44.297791%, 32.470703%, 20.979309%)" offset="0.519531"/><stop stop-opacity="1" stop-color="rgb(43.704224%, 32.035828%, 20.698547%)" offset="0.523438"/><stop stop-opacity="1" stop-color="rgb(43.109131%, 31.599426%, 20.41626%)" offset="0.527344"/><stop stop-opacity="1" stop-color="rgb(42.515564%, 31.164551%, 20.135498%)" offset="0.53125"/><stop stop-opacity="1" stop-color="rgb(41.920471%, 30.728149%, 19.85321%)" offset="0.535156"/><stop stop-opacity="1" stop-color="rgb(41.326904%, 30.293274%, 19.572449%)" offset="0.539062"/><stop stop-opacity="1" stop-color="rgb(40.731812%, 29.856873%, 19.290161%)" offset="0.542969"/><stop stop-opacity="1" stop-color="rgb(40.138245%, 29.421997%, 19.009399%)" offset="0.546875"/><stop stop-opacity="1" stop-color="rgb(39.543152%, 28.985596%, 18.727112%)" offset="0.550781"/><stop stop-opacity="1" stop-color="rgb(38.949585%, 28.55072%, 18.44635%)" offset="0.554688"/><stop stop-opacity="1" stop-color="rgb(38.354492%, 28.114319%, 18.164062%)" offset="0.558594"/><stop stop-opacity="1" stop-color="rgb(37.760925%, 27.679443%, 17.883301%)" offset="0.5625"/><stop stop-opacity="1" stop-color="rgb(37.165833%, 27.243042%, 17.601013%)" offset="0.566406"/><stop stop-opacity="1" stop-color="rgb(36.572266%, 26.808167%, 17.320251%)" offset="0.570312"/><stop stop-opacity="1" stop-color="rgb(35.977173%, 26.371765%, 17.037964%)" offset="0.574219"/><stop stop-opacity="1" stop-color="rgb(35.383606%, 25.93689%, 16.757202%)" offset="0.578125"/><stop stop-opacity="1" stop-color="rgb(34.788513%, 25.500488%, 16.474915%)" offset="0.582031"/><stop stop-opacity="1" stop-color="rgb(34.194946%, 25.065613%, 16.194153%)" offset="0.585938"/><stop stop-opacity="1" stop-color="rgb(33.599854%, 24.629211%, 15.911865%)" offset="0.589844"/><stop stop-opacity="1" stop-color="rgb(33.006287%, 24.194336%, 15.631104%)" offset="0.59375"/><stop stop-opacity="1" stop-color="rgb(32.411194%, 23.757935%, 15.348816%)" offset="0.597656"/><stop stop-opacity="1" stop-color="rgb(31.817627%, 23.323059%, 15.068054%)" offset="0.601562"/><stop stop-opacity="1" stop-color="rgb(31.222534%, 22.886658%, 14.787292%)" offset="0.605469"/><stop stop-opacity="1" stop-color="rgb(30.628967%, 22.451782%, 14.506531%)" offset="0.609375"/><stop stop-opacity="1" stop-color="rgb(30.033875%, 22.015381%, 14.224243%)" offset="0.613281"/><stop stop-opacity="1" stop-color="rgb(29.440308%, 21.580505%, 13.943481%)" offset="0.617188"/><stop stop-opacity="1" stop-color="rgb(28.845215%, 21.144104%, 13.661194%)" offset="0.621094"/><stop stop-opacity="1" stop-color="rgb(28.251648%, 20.709229%, 13.380432%)" offset="0.625"/><stop stop-opacity="1" stop-color="rgb(27.656555%, 20.272827%, 13.098145%)" offset="0.628906"/><stop stop-opacity="1" stop-color="rgb(27.062988%, 19.837952%, 12.817383%)" offset="0.632812"/><stop stop-opacity="1" stop-color="rgb(26.467896%, 19.40155%, 12.535095%)" offset="0.636719"/><stop stop-opacity="1" stop-color="rgb(25.874329%, 18.966675%, 12.254333%)" offset="0.640625"/><stop stop-opacity="1" stop-color="rgb(25.279236%, 18.530273%, 11.972046%)" offset="0.644531"/><stop stop-opacity="1" stop-color="rgb(24.685669%, 18.095398%, 11.691284%)" offset="0.648438"/><stop stop-opacity="1" stop-color="rgb(24.090576%, 17.658997%, 11.408997%)" offset="0.652344"/><stop stop-opacity="1" stop-color="rgb(23.497009%, 17.224121%, 11.128235%)" offset="0.65625"/><stop stop-opacity="1" stop-color="rgb(22.901917%, 16.78772%, 10.845947%)" offset="0.660156"/><stop stop-opacity="1" stop-color="rgb(22.30835%, 16.352844%, 10.565186%)" offset="0.664062"/><stop stop-opacity="1" stop-color="rgb(21.713257%, 15.916443%, 10.282898%)" offset="0.667969"/><stop stop-opacity="1" stop-color="rgb(21.11969%, 15.481567%, 10.002136%)" offset="0.671875"/><stop stop-opacity="1" stop-color="rgb(20.524597%, 15.045166%, 9.719849%)" offset="0.675781"/><stop stop-opacity="1" stop-color="rgb(19.93103%, 14.610291%, 9.439087%)" offset="0.679688"/><stop stop-opacity="1" stop-color="rgb(19.337463%, 14.173889%, 9.156799%)" offset="0.683594"/><stop stop-opacity="1" stop-color="rgb(18.743896%, 13.739014%, 8.876038%)" offset="0.6875"/><stop stop-opacity="1" stop-color="rgb(18.148804%, 13.302612%, 8.59375%)" offset="0.691406"/><stop stop-opacity="1" stop-color="rgb(17.555237%, 12.867737%, 8.312988%)" offset="0.695312"/><stop stop-opacity="1" stop-color="rgb(16.960144%, 12.431335%, 8.030701%)" offset="0.699219"/><stop stop-opacity="1" stop-color="rgb(16.366577%, 11.99646%, 7.749939%)" offset="0.703125"/><stop stop-opacity="1" stop-color="rgb(15.771484%, 11.560059%, 7.467651%)" offset="0.707031"/><stop stop-opacity="1" stop-color="rgb(15.177917%, 11.125183%, 7.18689%)" offset="0.710937"/><stop stop-opacity="1" stop-color="rgb(14.582825%, 10.688782%, 6.906128%)" offset="0.714844"/><stop stop-opacity="1" stop-color="rgb(13.989258%, 10.253906%, 6.625366%)" offset="0.71875"/><stop stop-opacity="1" stop-color="rgb(13.394165%, 9.817505%, 6.343079%)" offset="0.722656"/><stop stop-opacity="1" stop-color="rgb(12.800598%, 9.382629%, 6.062317%)" offset="0.726562"/><stop stop-opacity="1" stop-color="rgb(12.205505%, 8.946228%, 5.780029%)" offset="0.730469"/><stop stop-opacity="1" stop-color="rgb(11.611938%, 8.511353%, 5.499268%)" offset="0.734375"/><stop stop-opacity="1" stop-color="rgb(11.016846%, 8.074951%, 5.21698%)" offset="0.738281"/><stop stop-opacity="1" stop-color="rgb(10.423279%, 7.640076%, 4.936218%)" offset="0.742188"/><stop stop-opacity="1" stop-color="rgb(9.828186%, 7.203674%, 4.653931%)" offset="0.746094"/><stop stop-opacity="1" stop-color="rgb(9.234619%, 6.768799%, 4.373169%)" offset="0.75"/><stop stop-opacity="1" stop-color="rgb(8.639526%, 6.332397%, 4.090881%)" offset="0.753906"/><stop stop-opacity="1" stop-color="rgb(8.045959%, 5.897522%, 3.81012%)" offset="0.757813"/><stop stop-opacity="1" stop-color="rgb(7.450867%, 5.461121%, 3.527832%)" offset="0.761719"/><stop stop-opacity="1" stop-color="rgb(6.8573%, 5.026245%, 3.24707%)" offset="0.765625"/><stop stop-opacity="1" stop-color="rgb(6.262207%, 4.589844%, 2.964783%)" offset="0.769531"/><stop stop-opacity="1" stop-color="rgb(5.66864%, 4.154968%, 2.684021%)" offset="0.773438"/><stop stop-opacity="1" stop-color="rgb(5.073547%, 3.718567%, 2.401733%)" offset="0.777344"/><stop stop-opacity="1" stop-color="rgb(4.47998%, 3.283691%, 2.120972%)" offset="0.78125"/><stop stop-opacity="1" stop-color="rgb(3.884888%, 2.84729%, 1.838684%)" offset="0.785156"/><stop stop-opacity="1" stop-color="rgb(3.291321%, 2.412415%, 1.557922%)" offset="0.789062"/><stop stop-opacity="1" stop-color="rgb(2.696228%, 1.976013%, 1.275635%)" offset="0.792969"/><stop stop-opacity="1" stop-color="rgb(2.102661%, 1.541138%, 0.994873%)" offset="0.796875"/><stop stop-opacity="1" stop-color="rgb(1.507568%, 1.104736%, 0.712585%)" offset="0.800781"/><stop stop-opacity="1" stop-color="rgb(0.914001%, 0.669861%, 0.431824%)" offset="0.804688"/><stop stop-opacity="1" stop-color="rgb(0.456238%, 0.334167%, 0.215149%)" offset="0.808594"/><stop stop-opacity="1" stop-color="rgb(0%, 0%, 0%)" offset="0.8125"/><stop stop-opacity="1" stop-color="rgb(0%, 0%, 0%)" offset="0.875"/><stop stop-opacity="1" stop-color="rgb(0%, 0%, 0%)" offset="1"/></linearGradient></defs><g clip-path="url(#474c79ebf9)"><g clip-path="url(#024e52e257)"><path fill="url(#ed8150b7f0)" d="M 9.007812 0.0195312 L 9.007812 363.75 L 365.71875 363.75 L 365.71875 0.0195312 Z M 9.007812 0.0195312 " fill-rule="nonzero"/></g></g></svg>